<?xml version="1.0" encoding="UTF-8" standalone="no"?>
<svg
   xmlns:dc="http://purl.org/dc/elements/1.1/"
   xmlns:cc="http://creativecommons.org/ns#"
   xmlns:rdf="http://www.w3.org/1999/02/22-rdf-syntax-ns#"
   xmlns:svg="http://www.w3.org/2000/svg"
   xmlns="http://www.w3.org/2000/svg"
   xmlns:sodipodi="http://sodipodi.sourceforge.net/DTD/sodipodi-0.dtd"
   xmlns:inkscape="http://www.inkscape.org/namespaces/inkscape"
   version="1.1"
   id="svg2"
   xml:space="preserve"
   width="450"
   height="450"
   viewBox="0 0 5715.5469 3458.8"
   sodipodi:docname="vecteezy_code-icon-coding-symbol-coding-programming-sign_6816978.eps"><metadata
     id="metadata8"><rdf:RDF><cc:Work
         rdf:about=""><dc:format>image/svg+xml</dc:format><dc:type
           rdf:resource="http://purl.org/dc/dcmitype/StillImage" /></cc:Work></rdf:RDF></metadata><defs
     id="defs6" /><sodipodi:namedview
     bordercolor="#666666"
     borderopacity="1"
     objecttolerance="10"
     gridtolerance="10"
     guidetolerance="10"
     inkscape:pageopacity="0"
     inkscape:pageshadow="2"
     inkscape:window-width="640"
     inkscape:window-height="480"
     id="namedview4" /><g
     id="g10"
     inkscape:groupmode="layer"
     inkscape:label="ink_ext_XXXXXX"

     transform="matrix(1.3333333,0,0,-1.3333333,0,3458.8)"><g
       id="g12"
       transform="scale(0.1)"><path
         d="M 11292.3,4980.9 6591.02,9379 l -4701.36,4398.1 4701.36,4398.2 4701.38,4398"
         style="fill:#ffffff;fill-opacity:0;fill-rule:nonzero;stroke:none"
         id="path14" /><path
         d="m 11291.9,3091.3 c -462.5,0 -926.1,168.7 -1290.5,509.7 L 598.715,12397.1 C 216.777,12754.5 0,13254.1 0,13777.1 c 0,523 216.77,1022.6 598.707,1379.9 l 4701.343,4398.2 4701.35,4398 c 762.1,713 1958,673.1 2670.9,-89 713,-762.1 673.1,-1957.9 -89,-2670.9 L 4655.7,13777.1 12583.3,6360.9 c 762.1,-713 802,-1908.8 89,-2670.9 -372,-397.7 -875.6,-598.7 -1380.4,-598.7"
         style="fill:#245385;fill-opacity:1;fill-rule:nonzero;stroke:none"
         id="path16" /><path
         d="m 31574.3,4980.9 4701.3,4398.1 4701.4,4398.1 -4701.4,4398.2 -4701.3,4398"
         style="fill:#ffffff;fill-opacity:0;fill-rule:nonzero;stroke:none"
         id="path18" /><path
         d="m 31574.7,3091.3 c -504.8,0 -1008.3,201 -1380.4,598.7 -712.9,762.1 -673.1,1957.9 89.1,2670.9 l 7927.5,7416.2 -3226.2,3018.2 -4701.3,4398 c -762.2,713 -802,1908.8 -89.1,2670.9 713,762.1 1908.8,802 2670.9,89 l 4701.3,-4398 4701.4,-4398.2 c 382,-357.3 598.7,-856.9 598.7,-1379.9 0,-523 -216.7,-1022.6 -598.7,-1380 L 32865.2,3601 c -364.4,-340.9 -828,-509.7 -1290.5,-509.7"
         style="fill:#245385;fill-opacity:1;fill-rule:nonzero;stroke:none"
         id="path20" /><path
         d="m 17226.1,0 c -218.9,0 -441.5,38.4023 -658.7,119.203 -978.1,363.899 -1476,1451.897 -1112,2429.997 l 8245.8,22160.6 c 363.9,978.1 1451.8,1476 2430,1112.1 978.1,-364 1476,-1451.9 1112,-2430.1 L 18997.4,1231.2 C 18714.3,470.398 17993,0 17226.1,0"
         style="fill:#434b53;fill-opacity:1;fill-rule:nonzero;stroke:none"
         id="path22" /></g></g></svg>
